# xmcd CD database file
#
# Track frame offsets:
#	150
#	12155
#	26385
#	35465
#	53387
#	64530
#	79887
#	106997
#	114220
#	131842
#	139822
#
# Disc length: 2145 seconds
#
# Revision: 0
# Processed by: cddbd v1.5.1PL0 Copyright (c) Steve Scherf et al.
# Submitted via: CDex 1.51
#
DISCID=82085f0b
DTITLE=坂本龍一 - Chronological Collection 1978-1981[ColumbiaYears]DISC3
DYEAR=2004
DGENRE=JPop
TTITLE0=DANCE
TTITLE1=2 RONDES
TTITLE2=FA LA LA LA LAN
TTITLE3=BOKU NO KAKERA
TTITLE4=INSTRUMENTAL MOTET: IN SECULUM
TTITLE5=GRASSHOPPERS
TTITLE6=ROUR CE SE D'AMER
TTITLE7=A L'ENTRADA DEL TEN CLAR, EYA
TTITLE8=ISTAMPITTA: ISABELLA
TTITLE9=RIVER
TTITLE10=THE END OF ASIA
EXTD=YEAR: 2004
EXTT0=
EXTT1=
EXTT2=
EXTT3=
EXTT4=
EXTT5=
EXTT6=
EXTT7=
EXTT8=
EXTT9=
EXTT10=
PLAYORDER=
